<?xml version="1.0" standalone="yes"?>
<svg xmlns="http://www.w3.org/2000/svg" width="2163" height="961">
<path style="fill:#ffffff; stroke:none;" d="M0 0L0 961L2163 961L2163 0L0 0z"/>
<path style="fill:#013585; stroke:none;" d="M1306 68C1278.93 109.039 1258.13 155.767 1234.69 199C1198.18 266.35 1159.13 332.461 1121.15 399C1091.83 450.37 1056.94 502.586 1078.08 564C1083.61 580.077 1094.99 593.087 1109 602.481C1123.61 612.276 1138.86 617.766 1146.69 635C1153.98 651.071 1153 669.769 1153 687C1153 697.544 1151.19 708.3 1161.01 715.351C1171.23 722.682 1185.6 717.352 1196.98 720.318C1203.71 722.073 1203.97 732.149 1210.02 735.772C1218.64 740.945 1234.24 738 1244 738L1281 738C1284.69 738 1291.52 736.728 1294.4 739.603C1298.64 743.844 1295 757.402 1295 763L1320 763C1320 757.199 1316.2 743.011 1320.6 738.603C1323.48 735.728 1330.31 737 1334 737L1370 737C1379.21 737 1397.06 740.398 1404.96 735.258C1410.82 731.443 1411.17 721.428 1418.04 719.434C1429.36 716.151 1442.66 722.574 1452.98 714.581C1462.15 707.487 1461 696.334 1461 686C1461 668.853 1459.52 650.012 1466.9 634C1474.52 617.462 1490.91 611.233 1505 601.656C1517.59 593.097 1527.45 581.939 1533.69 568C1556.3 517.473 1530.22 465.252 1505.42 422C1459.32 341.577 1413.94 260.743 1368.42 180C1354.48 155.257 1341.04 130.116 1327.78 105C1321.8 93.6791 1315.91 76.2083 1306 68z"/>
<path style="fill:#010101; stroke:none;" d="M1307 68L1308 69L1307 68M1309 71L1310 72L1309 71M1298 81L1299 82L1298 81M1316 84L1317 85L1316 84M1291 94L1292 95L1291 94M1322 95L1323 96L1322 95M1284 107L1285 108L1284 107M1329 108L1330 109L1329 108M1278 118L1279 119L1278 118M1336 121L1337 122L1336 121z"/>
<path style="fill:#ffffff; stroke:none;" d="M1291 122C1285.04 135.939 1296.57 140.647 1306 150L1307 150C1317.01 141.85 1328.89 135.174 1322 122L1307 133.793L1291 122z"/>
<path style="fill:#010101; stroke:none;" d="M1322 123L1323 124L1322 123M1271 131L1272 132L1271 131M1287 132L1288 133L1287 132M1342 132L1343 133L1342 132M1308 134L1309 135L1308 134M1343 134L1344 135L1343 134M1321 136L1322 137L1321 136M1320 137L1321 138L1320 137M1265 142L1266 143L1265 142M1299 143L1300 144L1299 143M1300 144L1301 145L1300 144M1278 145L1279 146L1278 145z"/>
<path style="fill:#ffffff; stroke:none;" d="M1279 145C1260.03 171.557 1245.81 202.685 1229.58 231C1195.79 289.933 1162.36 349.07 1128.58 408C1104.03 450.816 1074.42 495.193 1085 547C1088.25 562.886 1096.37 578.125 1109 588.536C1124.44 601.267 1144.15 607.658 1154.66 626C1159.5 634.428 1162.53 644.265 1162.96 654C1163.53 666.987 1161.04 684.914 1172.17 694.468C1180.56 701.668 1194.74 699 1205 699L1285 699L1403 699C1414.11 699 1436.7 703.919 1444.61 694.892C1454.45 683.664 1450.68 664.633 1451.01 651C1451.31 638.897 1456.47 627.104 1464.3 618.001C1474.88 605.704 1489.81 600.527 1502 590.536C1522.41 573.807 1530.92 549.819 1530.92 524C1530.92 475.89 1499.73 434.089 1476.85 394L1382.15 228C1366.68 200.895 1347.33 173.623 1335 145C1316.77 153.353 1309.99 167.629 1313.15 186.96C1313.97 191.986 1319.74 194.531 1322 199.004C1327.36 209.592 1320.24 221.826 1309 224C1309 247.385 1308 270.657 1308 294C1308 302.973 1305.82 315.17 1308.32 323.791C1309.29 327.147 1313.01 328.707 1314.25 332.015C1316.36 337.591 1311.9 343.782 1306 343.782C1300.07 343.782 1295.68 337.596 1297.75 332.015C1298.87 328.969 1301.85 327.087 1302.68 323.911C1305.17 314.467 1303 301.765 1303 292L1303 224C1292.09 221.181 1284.59 209.703 1290.42 199C1292.79 194.646 1299.01 191.802 1299.85 186.896C1303.32 166.699 1295.78 155.484 1279 145z"/>
<path style="fill:#010101; stroke:none;" d="M1349 145L1350 146L1349 145M1282 147L1283 148L1282 147M1308 148L1309 149L1308 148M1328 149L1329 150L1328 149M1337 150L1338 151L1337 150M1274 152L1275 153L1274 152M1259 153L1260 154L1259 153M1323 153L1324 154L1323 153M1355 156L1356 157L1355 156M1296 158L1297 159L1296 158M1356 158L1357 159L1356 158M1270 159L1271 160L1270 159M1299 163L1300 164L1299 163M1253 164L1254 165L1253 164M1266 166L1267 167L1266 166M1348 169L1349 170L1348 169M1362 169L1363 170L1362 169M1262 173L1263 174L1262 173M1352 176L1353 177L1352 176M1246 177L1247 178L1246 177M1258 180L1259 181L1258 180M1368 180L1369 181L1368 180M1267 182L1268 183L1267 182z"/>
<path style="fill:#013585; stroke:none;" d="M1268 249C1262.67 243.604 1263.31 232.645 1256.96 229.587C1248.34 225.44 1240.1 236.307 1245.74 243.772C1248.64 247.611 1253.2 246.122 1257 248.028C1263.74 251.407 1276.77 263.889 1279.4 271C1281.68 277.182 1280 286.462 1280 293L1280 340L1285 340C1285 317.195 1288.35 291.51 1284.85 269C1283.77 262.038 1275.93 259.301 1273.6 253C1270.57 244.769 1273 231.742 1273 223C1273 216.829 1271.74 209.074 1273.32 203.089C1274.43 198.878 1278.73 196.727 1278.79 192C1278.85 186.221 1273.74 181.691 1268 182.627C1263.08 183.428 1259.65 188.028 1260.27 192.999C1260.92 198.142 1266.42 199.529 1267.68 204.104C1271.28 217.132 1268 235.46 1268 249z"/>
<path style="fill:#010101; stroke:none;" d="M1271 182L1272 183L1271 182M1342 185L1343 186L1342 185z"/>
<path style="fill:#013585; stroke:none;" d="M1344 307L1343 307C1339.62 299.177 1333.36 292.801 1330.09 285C1327.36 278.495 1328.08 265.939 1329.15 259C1329.81 254.715 1333.56 252.113 1334.55 248C1335.61 243.622 1333.26 238.778 1328.96 237.303C1316.44 233.015 1311.28 251.396 1324 255C1324 269.714 1320.53 282.007 1329 295C1333.52 301.931 1343.13 312.551 1343.73 320.985C1344.25 328.313 1333.21 333.157 1341.23 340.696C1345.99 345.177 1354.56 343.471 1356.48 336.985C1358.5 330.169 1352.72 328.079 1350.6 322.816C1348.3 317.115 1349.21 305.051 1350.15 299C1351.84 288.152 1367.81 282.74 1373.4 273.996C1377.35 267.813 1373.05 259.62 1375.6 253.089C1378.08 246.746 1387.13 240.156 1377.89 233.742C1366.89 226.107 1356.42 245.978 1370 250C1370 268.172 1365.4 276.155 1350 287C1350 261.2 1345 232.637 1349.15 207.039C1349.91 202.312 1354.88 199.955 1355.33 195C1355.92 188.655 1350.13 183.825 1344 185.438C1329.9 189.151 1343.33 206.477 1343.91 215C1345.99 245.364 1344 276.559 1344 307z"/>
<path style="fill:#010101; stroke:none;" d="M1277 186L1278 187L1277 186M1339 187L1340 188L1339 187M1278 188L1279 189L1278 188M1239 190L1240 191L1239 190z"/>
<path style="fill:#ffffff; stroke:none;" d="M1344.46 192.133C1341.78 193.747 1343.78 198.095 1346.72 196.748C1350.01 195.239 1347.62 190.223 1344.46 192.133z"/>
<path style="fill:#010101; stroke:none;" d="M1347 191L1348 192L1347 191M1374 191L1375 192L1374 191M1318 193L1319 194L1318 193M1250 194L1251 195L1250 194M1319 194L1320 195L1319 194M1273 200L1274 201L1273 200z"/>
<path style="fill:#ffffff; stroke:none;" d="M1304.05 200.758C1296.5 203.629 1300.33 215.669 1307.98 213.203C1316.24 210.541 1312.43 197.576 1304.05 200.758z"/>
<path style="fill:#010101; stroke:none;" d="M1379 200L1380 201L1379 200M1233 201L1234 202L1233 201M1341 202L1342 203L1341 202M1300 210L1301 211L1300 210M1311 211L1312 212L1311 211M1323 211L1324 212L1323 211M1343.33 211.667L1343.67 212.333L1343.33 211.667M1372 211L1373 212L1372 211M1385 211L1386 212L1385 211M1227 212L1228 213L1227 212M1302 212L1303 213L1302 212M1289 213L1290 214L1289 213M1308 213L1309 214L1308 213M1290 215L1291 216L1290 215M1292 218L1293 219L1292 218M1376 218L1377 219L1376 218M1293 219L1294 220L1293 219M1390 220L1391 221L1390 220M1222 221L1223 222L1222 221M1297 222L1298 223L1297 222M1312 223L1313 224L1312 223M1233 224L1234 225L1233 224M1380 225L1381 226L1380 225M1248 229L1249 230L1248 229M1395 229L1396 230L1395 229M1217 230L1218 231L1217 230M1229 231L1230 232L1229 231M1369 232L1370 233L1369 232M1384 232L1385 233L1384 232M1244 233L1245 234L1244 233M1367 233L1368 234L1367 233M1252 234L1253 235L1252 234z"/>
<path style="fill:#ffffff; stroke:none;" d="M1250.79 236.042C1248.36 238.165 1252.07 241.591 1254.29 239.357C1256.53 237.113 1252.97 234.13 1250.79 236.042z"/>
<path style="fill:#010101; stroke:none;" d="M1249 236L1250 237L1249 236M1255 236L1256 237L1255 236M1324 236L1325 237L1324 236M1326 236L1327 237L1326 236M1364 236L1365 237L1364 236M1399 236L1400 237L1399 236M1213 237L1214 238L1213 237M1225 238L1226 239L1225 238M1319 238L1320 239L1319 238M1388 239L1389 240L1388 239M1250 240L1251 241L1250 240M1254 240L1255 241L1254 240M1209 244L1210 245L1209 244M1221 245L1222 246L1221 245M1364 246L1365 247L1364 246M1392 246L1393 247L1392 246M1369 250L1370 251L1369 250M1217 252L1218 253L1217 252M1332 252L1333 253L1332 252M1396 253L1397 254L1396 253M1202 256L1203 257L1202 256M1213 259L1214 260L1213 259M1198 263L1199 264L1198 263M1323 263L1323 269L1324 269L1323 263z"/>
<path style="fill:#013585; stroke:none;" d="M1230 351L1229 351C1224.84 342.981 1213.5 337.76 1211.32 329C1210.15 324.313 1210.85 313.575 1212.6 309.089C1214.91 303.168 1223.75 297.141 1215.77 290.703C1204.73 281.788 1193.73 299.904 1207 307C1204.88 314.185 1203.92 329.486 1208.03 336C1213.62 344.856 1224.86 350.272 1229.06 360C1232.52 368.004 1230 381.348 1230 390L1235 390L1235 296C1235 292.966 1234.4 289.07 1235.6 286.209C1237.98 280.587 1247.21 274.12 1238.77 267.742C1232.65 263.116 1224.09 267.594 1224.09 275C1224.09 280.741 1229.46 283.494 1229.94 289.004C1231.72 309.332 1230 330.586 1230 351z"/>
<path style="fill:#010101; stroke:none;" d="M1308.33 269.667L1308.67 270.333L1308.33 269.667M1194 270L1195 271L1194 270M1349.33 270.667L1349.67 271.333L1349.33 270.667z"/>
<path style="fill:#ffffff; stroke:none;" d="M1231.32 273.082C1228.13 275.094 1231.65 279.172 1234.37 276.958C1236.79 274.984 1233.89 271.456 1231.32 273.082z"/>
<path style="fill:#010101; stroke:none;" d="M1235 273L1236 274L1235 273z"/>
<path style="fill:#013585; stroke:none;" d="M1253 275C1253 290.708 1255.35 308.466 1252.85 323.961C1252.1 328.622 1247.47 331.061 1247.13 336C1246.77 341.206 1250.68 345.723 1256 345.786C1261.31 345.85 1265.9 341.415 1265.47 336C1265.08 331.029 1259.92 328.72 1259.15 323.961C1256.64 308.479 1259 290.699 1259 275L1253 275z"/>
<path style="fill:#010101; stroke:none;" d="M1362 276L1363 277L1362 276M1190 277L1191 278L1190 277M1361 277L1362 278L1361 277M1366 280L1367 281L1366 280M1186 284L1187 285L1186 284M1330 286L1331 287L1330 286M1351 286L1352 287L1351 286M1400 286L1401 287L1400 286z"/>
<path style="fill:#013585; stroke:none;" d="M1400 356L1380.6 334L1380 314C1390.36 311.02 1388.02 295.609 1377 296.153C1361.79 296.903 1371.95 310.266 1374.4 316.209C1377.25 323.114 1371.64 331.218 1375.03 338C1380.17 348.281 1394.41 354.175 1398.4 365C1401.06 372.219 1399 383.339 1399 391L1405 391C1405 386.221 1403.04 376.385 1405.77 372.39C1410.6 365.34 1423.33 364.562 1429.68 359.034C1432.8 356.318 1431.29 352.531 1432.6 349.089C1433.76 346.035 1436.68 344.098 1437.84 340.985C1441.4 331.405 1427.85 323.544 1421.74 332.133C1415.79 340.497 1425.85 343.368 1426.53 350.078C1427.22 356.797 1410.04 362.903 1405 365L1406 304C1416.92 300.86 1413.37 284.096 1402.01 286.41C1396.64 287.506 1394.06 292.846 1395.32 297.996C1396.28 301.925 1400.19 303.984 1400.85 308.039C1403.28 323.011 1400 340.723 1400 356z"/>
<path style="fill:#010101; stroke:none;" d="M1398 287L1399 288L1398 287M1211 288L1212 289L1211 288M1410 288L1411 289L1410 288M1196 289L1197 290L1196 289M1356 289L1357 290L1356 289M1396 289L1397 290L1396 289M1417 290L1418 291L1417 290M1182 291L1183 292L1182 291M1412 291L1413 292L1412 291z"/>
<path style="fill:#ffffff; stroke:none;" d="M1402.32 293.175C1399.32 294.708 1401.69 299.355 1404.68 297.825C1407.68 296.292 1405.31 291.646 1402.32 293.175z"/>
<path style="fill:#010101; stroke:none;" d="M1192 296L1193 297L1192 296M1337 297L1338 298L1337 297M1421 297L1422 298L1421 297M1178 298L1179 299L1178 298M1331 298L1332 299L1331 298M1200 300L1201 301L1200 300M1216 304L1217 305L1216 304M1342 305L1343 306L1342 305M1213 306L1214 307L1213 306M1336 306L1337 307L1336 306z"/>
<path style="fill:#d97101; stroke:none;" d="M1607 349L1639 349C1639.14 342.353 1640.81 334.983 1647.04 331.417C1656.06 326.254 1676.05 327.91 1677.42 341C1678.34 349.811 1668.27 359.029 1663.13 365C1652.18 377.714 1638.66 388.58 1626 399.576C1619.29 405.401 1610.16 411.632 1606.53 420C1600.83 433.171 1612.3 440.659 1624 441.829C1652.09 444.64 1681.76 442 1710 442L1710 419L1648 419C1669.6 397.397 1717.68 367.973 1711.67 332C1708.21 311.264 1683.7 306.001 1666 306C1645.61 305.999 1619.44 305.315 1610.46 328C1607.87 334.561 1607.55 342.031 1607 349M1773 306.428C1761.16 308.123 1749.17 311.028 1741.53 321.001C1736.12 328.065 1734.8 337.448 1733.58 346C1730.27 369.12 1727.09 408.438 1742.53 427.985C1755.51 444.414 1785.02 445.289 1804 442.572C1815.46 440.931 1827.84 438.232 1835.67 428.985C1843.27 420.012 1845.49 407.364 1846.04 396C1847.2 372.081 1851.35 338.458 1833.81 319.015C1820.21 303.937 1791.65 303.758 1773 306.428M1868 349L1899 349C1900.33 341.958 1901.15 335.039 1908 331.089C1916.94 325.937 1936.19 328.65 1937.73 341C1938.84 349.916 1928.78 358.978 1923.57 365C1911.86 378.559 1897.29 389.867 1884 401.831C1878.37 406.898 1870.92 412.073 1867.46 419C1860.95 432.02 1872.18 440.556 1884 441.826C1912.32 444.87 1942.5 442 1971 442L1971 419L1908 419C1923.37 404.292 1940.51 390.722 1954.83 374.996C1960.01 369.304 1964.38 362.92 1967.74 356C1975.45 340.139 1973.73 321.309 1957 312.324C1937.11 301.646 1893.46 300.418 1877.1 318.015C1869.12 326.61 1868 337.83 1868 349z"/>
<path style="fill:#010101; stroke:none;" d="M1936 306L1937 307L1936 306M2007 306L2008 307L2007 306z"/>
<path style="fill:#d97101; stroke:none;" d="M2007 326C2012.04 327.167 2024.03 328.738 2026.97 333.303C2031.03 339.592 2028 355.618 2028 363L2028 442L2060 442L2060 354C2060 342.389 2063 325.764 2058.03 315.015C2052.78 303.661 2031.39 306 2021 306C2017.67 306 2011.38 304.825 2008.6 307.028C2004.94 309.927 2007 321.718 2007 326z"/>
<path style="fill:#010101; stroke:none;" d="M2035 306L2036 307L2035 306M1206 307L1207 308L1206 307M1766 307L1767 308L1766 307M1942 307L1943 308L1942 307M2047 307L2048 308L2047 307M1440 308L1441 309L1440 308M1689 309L1690 310L1689 309M1369 310L1370 311L1369 310M1625 311L1626 312L1625 311M1694 311L1695 312L1694 311M1753 311L1754 312L1753 311M1372 313L1373 314L1372 313M1430 313L1431 314L1430 313M1341 314L1342 315L1341 314M1380 314L1381 315L1380 314M1181 315L1182 316L1181 315M1444 315L1445 316L1444 315M1745 316L1746 317L1745 316M1744 317L1745 318L1744 317M1743 318L1744 319L1743 318M1211 320L1212 321L1211 320M1434 320L1435 321L1434 320M1165 321L1166 322L1165 321M1177 322L1178 323L1177 322M1448 322L1449 323L1448 322M1836 322L1837 323L1836 322M1400 324L1401 325L1400 324M1343 325L1344 326L1343 325M1353 326L1354 327L1353 326M1374 327L1375 328L1374 327M1438 327L1439 328L1438 327M1710 327L1711 328L1710 327M1161 328L1162 329L1161 328M1173 329L1174 330L1173 329z"/>
<path style="fill:#013585; stroke:none;" d="M1187 579C1173.4 565.403 1157.04 544.84 1140 536C1147.31 525.625 1166.71 515.421 1169.68 503C1171.38 495.869 1169 485.498 1169 478C1169 456.275 1168 434.705 1168 413C1168 405.824 1166.6 396.982 1168.32 390C1169.49 385.221 1174.25 382.34 1173.74 377.001C1173.04 369.648 1163.7 366.19 1158.28 371.318C1150.64 378.538 1159.97 383.455 1161.68 390.039C1164 398.959 1163 410.774 1163 420C1163 439.714 1164 459.333 1164 479C1164 485.573 1165.96 496.017 1162.97 502C1157.95 512.052 1144.92 521.077 1137 529C1137 500.711 1138.94 472.273 1139 444C1139.02 435.539 1151.33 424.751 1141.79 418.009C1135.82 413.793 1127.52 417.641 1127.15 425C1126.91 429.997 1130.77 432.014 1132.4 436.17C1134.26 440.91 1133 447.971 1133 453C1133 472.054 1132 490.982 1132 510C1132 517.391 1130.44 526.799 1132.32 533.961C1134.16 540.984 1145.66 548.786 1151 553.424C1160.68 561.837 1169.61 571.168 1179 579.911C1184.74 585.254 1192.16 590.288 1196.4 597C1200.49 603.483 1198 616.54 1198 624L1198 691L1203 691C1203 660.83 1207.48 626.774 1202.85 597C1201.69 589.543 1192.73 586.754 1192.06 579C1190.49 560.96 1192 542.115 1192 524L1192 414C1192 394.116 1189.03 371.632 1192.15 352.015C1192.91 347.211 1197.89 344.89 1198.61 339.999C1199.4 334.666 1195.36 329.688 1190 329.308C1184.41 328.912 1179.88 333.461 1180.15 339C1180.41 344.264 1185.46 346.335 1186.68 351.039C1189.53 361.969 1187 376.7 1187 388L1187 579z"/>
<path style="fill:#010101; stroke:none;" d="M1262 329L1263 330L1262 329M1452 329L1453 330L1452 329M1666 329L1667 330L1666 329M1194 330L1195 331L1194 330M1263 330L1264 331L1263 330M1356 330L1357 331L1356 330z"/>
<path style="fill:#ffffff; stroke:none;" d="M1782 330.468C1764.08 333.848 1765 352.591 1765 367C1765 386.597 1759.62 416.278 1786 418.83C1789.66 419.184 1793.39 419.036 1797 418.384C1814.13 415.295 1812.85 400.901 1814.17 387C1816.53 362.197 1817.55 323.761 1782 330.468z"/>
<path style="fill:#010101; stroke:none;" d="M1211 331L1212 332L1211 331M1338 331L1339 332L1338 331M2026 331L2027 332L2026 331M1247 332L1248 333L1247 332z"/>
<path style="fill:#ffffff; stroke:none;" d="M1304.36 333.082C1301.44 334.938 1304.85 338.678 1307.38 336.918C1310.05 335.067 1306.97 331.42 1304.36 333.082z"/>
<path style="fill:#010101; stroke:none;" d="M1644 332L1645 333L1644 332M1803 332L1804 333L1803 332M1197 333L1198 334L1197 333M1643 333L1644 334L1643 333M1442 334L1443 335L1442 334M1157 335L1158 336L1157 335M1207 335L1208 336L1207 335M1169 336L1170 337L1169 336M1208 336L1209 337L1208 336M1405 336L1406 337L1405 336M1456 336L1457 337L1456 336M1641 336L1642 337L1641 336M1303 337L1304 338L1303 337M1355 339L1356 340L1355 339M1438 339L1439 340L1438 339M1768 339L1769 340L1768 339M1340 340L1341 341L1340 340M1198 341L1199 342L1198 341M1446 341L1447 342L1446 341M1153 342L1154 343L1153 342M1437 342L1438 343L1437 342M1639 342L1640 343L1639 342M1165 343L1166 344L1165 343M1249 343L1250 344L1249 343M1346 343L1347 344L1346 343M1348 343L1349 344L1348 343M1387 343L1388 344L1387 343M1421 343L1422 344L1421 343M1460 343L1461 344L1460 343M1261 344L1262 345L1261 344M1388 344L1389 345L1388 344M1607 344L1608 345L1607 344M1259 345L1260 346L1259 345M1423 345L1424 346L1423 345M1384 348L1385 349L1384 348M1450 348L1451 349L1450 348M1149 349L1150 350L1149 349M1228 349L1229 350L1228 349M1385 349L1386 350L1385 349M1161 350L1162 351L1161 350M1229 350L1230 351L1229 350M1933 353L1934 354L1933 353M1225 354L1226 355L1225 354M1226 355L1227 356L1226 355M1454 355L1455 356L1454 355M1707 355L1708 356L1707 355M1145 356L1146 357L1145 356M1157 357L1158 358L1157 357M1249 359L1250 360L1249 359z"/>
<path style="fill:#013585; stroke:none;" d="M1272 391L1272 409L1254 409L1254 427L1236 427C1236 421.944 1238.41 408.185 1233.68 405.028C1230.4 402.835 1225.62 404.6 1222 403.016C1217.21 400.922 1212.48 396.773 1207.23 400.742C1201.11 405.367 1205.1 414.786 1212 415.752C1217.79 416.562 1222.67 411.022 1229 411C1229 416.059 1226.75 428.209 1230.03 432.258C1233.52 436.575 1248.84 434 1254 434L1254 448C1244.72 448 1233.05 449.918 1224.04 447.686C1218.9 446.414 1215.02 440.286 1209.05 443.218C1201.46 446.953 1203.67 458.667 1212 459.551C1216.72 460.051 1219.63 455.798 1224.04 455.144C1233.63 453.721 1244.31 455 1254 455L1254 468C1244.62 468 1234.27 469.246 1225 467.853C1219.91 467.088 1216.52 462.386 1211.02 463.244C1204.37 464.278 1201.8 474.15 1207.23 478.258C1213.47 482.978 1218.25 476.719 1224 475.317C1233.06 473.109 1244.68 475 1254 475L1254 489C1249 489 1233.33 486.433 1230.03 490.603C1226.75 494.741 1229 506.868 1229 512C1222.28 511.921 1217.63 506.097 1211 507.232C1203.57 508.505 1202.13 518.111 1208.11 522.258C1213.77 526.186 1217.19 521.445 1222.17 519.588C1225.76 518.25 1230.39 520.166 1233.68 517.972C1238.41 514.815 1236 501.056 1236 496L1254 496L1255.03 512.397L1272 514L1272 532C1267.29 532 1253.32 529.639 1250.18 533.603C1247.63 536.818 1249.64 542.281 1248.02 546C1246.02 550.571 1241.64 555.6 1245.74 560.581C1250.41 566.244 1259.72 562.789 1260.76 555.999C1261.68 549.917 1256.07 545.337 1256 539C1261.14 539 1273.53 541.263 1277.4 537.397C1281.49 533.306 1279 519.477 1279 514L1293 514C1293 523.231 1294.96 534.963 1292.69 543.911C1291.26 549.516 1284.85 553.51 1289.02 559.867C1293.32 566.403 1303.33 563.243 1304.56 555.996C1305.41 550.993 1300.85 547.69 1300.15 543C1298.75 533.727 1300 523.38 1300 514L1313 514C1313 523.38 1314.25 533.727 1312.85 543C1312.15 547.701 1307.67 550.996 1308.27 555.999C1309.09 562.8 1318.77 566.166 1323.26 560.605C1328.25 554.418 1321.7 549.552 1320.31 543.961C1318.08 534.947 1320 523.284 1320 514L1334 514C1334 518.994 1331.44 534.523 1335.6 537.821C1339.89 541.215 1351.73 539 1357 539C1356.92 545.643 1350.7 550.469 1352.32 556.995C1354 563.749 1363.21 565.562 1367.26 559.867C1370.91 554.725 1367.02 550.657 1364.98 546C1363.36 542.281 1365.37 536.818 1362.82 533.603C1359.68 529.639 1345.71 532 1341 532L1341 514L1357.97 512.397L1359 496L1377 496C1377 501.056 1374.59 514.815 1379.32 517.972C1382.6 520.165 1387.38 518.4 1391 519.984C1395.66 522.022 1399.72 525.908 1404.87 522.258C1410.57 518.207 1409.18 508.482 1401.98 507.232C1395.37 506.083 1390.71 511.921 1384 512C1384 506.868 1386.25 494.741 1382.97 490.603C1379.67 486.433 1364 489 1359 489L1359 475C1368.28 475 1379.95 473.082 1388.96 475.314C1394.45 476.672 1399.52 483.326 1405.57 478.258C1411.12 473.613 1407.97 464.112 1401 463.272C1396 462.669 1392.7 467.146 1388 467.853C1378.73 469.246 1368.38 468 1359 468L1359 455C1368.41 455 1378.68 453.822 1388 455.144C1392.61 455.799 1396.17 460.067 1401 459.551C1408.93 458.704 1411.1 446.907 1403.95 443.333C1397.66 440.193 1393.54 446.331 1388 447.683C1379.24 449.82 1368.02 448 1359 448L1359 434C1364.48 434 1378.31 436.487 1382.4 432.397C1386.26 428.53 1384 416.142 1384 411C1390.34 411.075 1394.92 416.681 1401 415.756C1408.45 414.624 1411.12 405.147 1404.87 400.603C1399.6 396.778 1395.46 400.952 1390.83 403.066C1387.15 404.747 1381.83 402.627 1378.6 405.179C1374.64 408.319 1377 422.291 1377 427L1359 427L1359 409L1341 409L1341 391C1346.4 391 1357.07 393.048 1361.68 389.972C1365.13 387.673 1363.63 382.48 1364.14 379.039C1365.07 372.83 1373.71 365.571 1364.81 360.458C1354.57 354.576 1346.34 371.632 1357 375L1357 384C1351.87 384 1339.74 381.751 1335.6 385.028C1331.43 388.331 1334 403.998 1334 409L1320 409C1320 399.68 1318.12 388.073 1320.31 379.015C1321.7 373.296 1328.19 368.608 1323.26 362.279C1318.62 356.333 1309.12 359.989 1308.27 367.001C1307.67 372.004 1312.15 375.299 1312.85 380C1314.25 389.273 1313 399.62 1313 409L1300 409C1300 399.299 1298.71 388.59 1300.15 379C1300.8 374.673 1304.98 371.508 1304.66 367.001C1304.1 359.156 1293.03 356.636 1288.87 363.109C1284.82 369.416 1291.31 373.498 1292.69 379.039C1294.92 388.052 1293 399.716 1293 409L1279 409C1279 403.837 1281.58 388.521 1277.26 385.028C1273.21 381.752 1261.06 384 1256 384C1256.02 377.518 1261.38 372.996 1260.85 367.004C1260.21 359.817 1250.4 356.3 1245.74 362.279C1241.66 367.516 1245.83 372.267 1247.99 377C1249.65 380.621 1247.82 385.377 1250.03 388.682C1253.19 393.414 1266.94 391 1272 391z"/>
<path style="fill:#010101; stroke:none;" d="M1416 359L1417 360L1416 359M1355 360L1356 361L1355 360M1414 360L1415 361L1414 360M1310 361L1311 362L1310 361M1412 361L1413 362L1412 361M1259 362L1260 363L1259 362M1367 362L1368 363L1367 362M1458 362L1459 363L1458 362M1287 365L1288 366L1287 365M1923 365L1924 366L1923 365z"/>
<path style="fill:#ffffff; stroke:none;" d="M1252 366L1251 369L1254 367L1252 366M1296 366L1295 369L1296 366M1316 366L1315 367L1318 369L1316 366z"/>
<path style="fill:#010101; stroke:none;" d="M1359 366L1360 367L1359 366z"/>
<path style="fill:#ffffff; stroke:none;" d="M1360 366L1359 369L1362 369L1360 366z"/>
<path style="fill:#010101; stroke:none;" d="M1164 368L1165 369L1164 368M1253 368L1254 369L1253 368M1660 368L1661 369L1660 368M1699 368L1700 369L1699 368M1462 369L1463 370L1462 369M1957 371L1958 372L1957 371M1172 372L1173 373L1172 372M1367 372L1368 373L1367 372M1404 372L1404 375L1405 375L1404 372M1259 373L1260 374L1259 373M1302 373L1303 374L1302 373M1477 373L1478 374L1477 373M1173 374L1174 375L1173 374M1301 374L1302 375L1301 374M1322 374L1323 375L1322 374z"/>
<path style="fill:#ffffff; stroke:none;" d="M1162.62 376.082C1159.95 377.934 1163.03 381.58 1165.64 379.918C1168.56 378.062 1165.15 374.322 1162.62 376.082z"/>
<path style="fill:#010101; stroke:none;" d="M1166 375L1167 376L1166 375M1300 375L1301 376L1300 375M1356 375L1357 376L1356 375M1364 375L1365 376L1364 375M1466 376L1467 377L1466 376M1145 378L1146 379L1145 378M1132 379L1133 380L1132 379M1481 380L1482 381L1481 380M1947 381L1948 382L1947 381M1946 382L1947 383L1946 382z"/>
<path style="fill:#013585; stroke:none;" d="M1497 473C1497 487.653 1499.82 499.452 1488 509.718C1485.54 511.854 1480.54 518.099 1477 515.454C1472.17 511.847 1464.55 502.707 1462.59 497C1460.14 489.888 1462 479.482 1462 472L1462 417C1462 412.707 1461.1 407.18 1462.59 403.089C1464.86 396.838 1472.21 390.516 1463.89 384.603C1457.98 380.404 1449.3 384.783 1449.21 392C1449.15 397.346 1453.63 398.921 1455.4 403.209C1456.7 406.349 1456 410.674 1456 414L1456 472C1456 480.234 1454.14 491.086 1456.51 499C1459.8 509.959 1474.93 516.137 1475.94 528C1476.72 537.095 1478.1 551.099 1475.68 559.896C1474.45 564.391 1469.41 565.797 1469.15 571.001C1468.9 576.213 1472.71 580.767 1478 580.897C1483.84 581.041 1488.8 575.954 1487.39 570.001C1486.49 566.211 1482.98 564.278 1481.6 560.83C1478.79 553.815 1478.93 532.08 1481.6 525.015C1484.59 517.11 1495.51 513.282 1500.4 506.576C1506.33 498.427 1499.03 484.269 1502.6 475.17C1504.69 469.83 1510.09 466.689 1507.14 460.105C1500.38 445.012 1478.97 467.813 1497 473z"/>
<path style="fill:#010101; stroke:none;" d="M1470 383L1471 384L1470 383M1171 384L1172 385L1171 384M1814 384L1815 385L1814 384M1278 385L1279 386L1278 385M1451 385L1452 386L1451 385M1465 385L1466 386L1465 385M1902 385L1903 386L1902 385M1128 386L1129 387L1128 386M1160 386L1161 387L1160 386z"/>
<path style="fill:#013585; stroke:none;" d="M1417 599C1416.99 594.698 1417 590.708 1414.5 587C1412.38 583.866 1406.03 579.285 1407.2 575C1409.95 565.003 1424.79 559.786 1428.4 550C1430.7 543.744 1428.53 535.419 1428.09 529C1427.34 518.075 1427.09 505.922 1428.06 495.015C1428.59 489.084 1435.49 486.339 1434.73 480C1433.85 472.649 1423.86 469.165 1418.65 474.573C1411.49 482.018 1420.98 486.714 1422.68 493.093C1424.12 498.483 1423 505.443 1423 511C1423 521.394 1425.99 537.233 1422.4 547C1418.97 556.307 1406.88 565.123 1400 572C1398.69 567.812 1396.76 562.565 1398.6 558.209C1400.31 554.152 1404.43 552.934 1404.89 547.999C1406.08 535.197 1387.09 534.214 1387.09 547C1387.09 551.973 1390.8 553.89 1392.4 558.089C1394.09 562.528 1391.93 567.61 1394.01 572C1397.56 579.458 1405.69 583.775 1409.57 591C1411.75 595.068 1411.6 601.431 1411.91 606C1412.53 615.018 1415.34 632.732 1412.39 641C1409.88 648.055 1401.33 651.388 1398.03 658C1394.06 665.939 1397 681.196 1397 690L1402 690C1402 682.174 1399.49 669.079 1403.03 662C1406.45 655.161 1415.76 651.656 1417.68 644C1420.49 632.78 1412.64 617.089 1418.56 607C1425.69 594.879 1442.51 587.306 1447.4 574C1450.8 564.732 1448 549.854 1448 540C1448 515.015 1448.46 489.98 1448 465C1447.77 452.815 1433.02 449.777 1430.32 439C1428.41 431.388 1428.27 415.681 1430.32 408.104C1431.91 402.218 1438.8 400.4 1435.85 393.043C1433.4 386.947 1424.96 385.239 1420.51 390.279C1413.75 397.946 1422.96 402.41 1424.68 409.039C1427.53 419.981 1421.68 433.348 1425.6 444C1428.58 452.079 1439.55 455.496 1441.68 464C1443.57 471.537 1442 481.242 1442 489L1442 541C1442 550.044 1444.5 563.506 1441.26 572C1437.55 581.717 1424.07 591.326 1417 599z"/>
<path style="fill:#010101; stroke:none;" d="M1485 387L1486 388L1485 387M1732 388L1733 389L1732 388M1677 390L1678 391L1677 390M1124 393L1125 394L1124 393M1418 393L1419 394L1418 393z"/>
<path style="fill:#ffffff; stroke:none;" d="M1426.26 394.06C1423.07 394.7 1424.46 400.254 1427.74 399.11C1430.65 398.093 1429.17 393.477 1426.26 394.06z"/>
<path style="fill:#010101; stroke:none;" d="M1136 394L1137 395L1136 394M1429 394L1430 395L1429 394M1436 394L1437 395L1436 394M1489 394L1490 395L1489 394M1892 394L1893 395L1892 394M1428 399L1429 400L1428 399M1626 399L1627 400L1626 399M1928 399L1929 400L1928 399M1120 400L1121 401L1120 400M1394 400L1395 401L1394 400M1132 401L1133 402L1132 401M1493 401L1494 402L1493 401M1882 403L1883 404L1882 403M1162 404L1163 405L1162 404M1378 404L1379 405L1378 404M1432 404L1433 405L1432 404M1430 405L1431 406L1430 405z"/>
<path style="fill:#ffffff; stroke:none;" d="M1211 407L1211 408L1214 409L1214 406L1211 407M1398 407L1398 408L1401 409L1401 406L1398 407z"/>
<path style="fill:#010101; stroke:none;" d="M1659 407L1660 408L1659 407M1497 408L1498 409L1497 408M1616 408L1617 409L1616 408M1658 408L1659 409L1658 408M1220 411L1221 412L1220 411M1206 413L1207 414L1206 413M1219 413L1220 414L1219 413M1808 413L1809 414L1808 413M1871 413L1872 414L1871 413M1218 414L1219 415L1218 414M1912 414L1913 415L1912 414M1209 415L1210 416L1209 415z"/>
<path style="fill:#ffffff; stroke:none;" d="M1261 415L1261 507L1352 507L1352 415L1261 415z"/>
<path style="fill:#010101; stroke:none;" d="M1736 415L1737 416L1736 415M1139 416L1140 417L1139 416M1775 416L1776 417L1775 416M1141 417L1142 418L1141 417M1783 418L1784 419L1783 418M1841 418L1842 419L1841 418M1107 423L1108 424L1107 423z"/>
<path style="fill:#013585; stroke:none;" d="M1270.6 425.028C1268.25 426.891 1269 431.383 1269 434L1269 459L1269 486C1269 489.156 1268.18 493.912 1270.03 496.682C1272.72 500.714 1281.84 499 1286 499L1326 499C1330.28 499 1337.97 500.452 1341.68 497.972C1344.52 496.081 1343.99 491.946 1344 489L1344 463L1344 436C1344 432.999 1344.83 428.134 1342.82 425.603C1340.2 422.29 1330.78 424 1327 424L1286 424C1282.07 424 1273.85 422.456 1270.6 425.028z"/>
<path style="fill:#010101; stroke:none;" d="M1343 425L1344 426L1343 425z"/>
<path style="fill:#ffffff; stroke:none;" d="M1276 431L1276 492L1337 492L1337 431L1276 431z"/>
<path style="fill:#010101; stroke:none;" d="M1866 432L1867 433L1866 432M1141 433L1142 434L1141 433M1514 438L1515 439L1514 438M1098 439L1099 440L1098 439M1502 439L1503 440L1502 439M1168 440L1169 441L1168 440M1109 441L1110 442L1109 441M1810 441L1811 442L1810 441M1213 442L1214 443L1213 442M1328 442L1329 443L1328 442z"/>
<path style="fill:#013585; stroke:none;" d="M1327 466L1333 466C1333 462.273 1335.18 442.867 1330 442.867C1324.82 442.867 1327 462.273 1327 466z"/>
<path style="fill:#010101; stroke:none;" d="M1331 442L1332 443L1331 442M1106 446L1107 447L1106 446M1326 446L1326 464L1327 464L1326 446M1507 448L1508 449L1507 448M1212 449L1213 450L1212 449M1092 450L1093 451L1092 450z"/>
<path style="fill:#ffffff; stroke:none;" d="M1211 452L1214 450L1211 452M1399 450L1399 452L1401 452L1401 450L1399 450z"/>
<path style="fill:#010101; stroke:none;" d="M1521 450L1522 451L1521 450M1408 451L1409 452L1408 451M1138 452L1139 453L1138 452M1407 455L1408 456L1407 455M1492 457L1493 458L1492 457M1512 457L1513 458L1512 457M1217 458L1218 459L1217 458M1395 458L1396 459L1395 458M1506 458L1507 459L1506 458M1402 459L1403 460L1402 459M1163 460L1164 461L1163 460M1086 461L1087 462L1086 461z"/>
<path style="fill:#ffffff; stroke:none;" d="M1497.34 462.172C1494.47 463.652 1496.87 468.121 1499.71 466.745C1502.71 465.29 1500.28 460.661 1497.34 462.172z"/>
<path style="fill:#010101; stroke:none;" d="M1396 463L1397 464L1396 463M1528 464L1529 465L1528 464M1084 465L1085 466L1084 465M1495 465L1496 466L1495 465M1096 466L1097 467L1096 466M1083 467L1084 468L1083 467M1497 467L1498 468L1497 467M1507 468L1508 469L1507 468z"/>
<path style="fill:#ffffff; stroke:none;" d="M1212 470L1211 471L1214 473L1212 470z"/>
<path style="fill:#010101; stroke:none;" d="M1213 470L1214 471L1213 470z"/>
<path style="fill:#ffffff; stroke:none;" d="M1399 470L1401 473L1399 470z"/>
<path style="fill:#010101; stroke:none;" d="M1400 470L1401 471L1400 470M1398 471L1399 472L1398 471M1519 471L1520 472L1519 471M1408 472L1409 473L1408 472M1419 473L1420 474L1419 473M1496 473L1497 474L1496 473M1080 474L1081 475L1080 474M1432 474L1433 475L1432 474z"/>
<path style="fill:#013585; stroke:none;" d="M1105.04 475.742C1093.29 480.51 1105.95 493.685 1106 501C1106.07 511.999 1106 523.001 1106 534C1106 538.568 1104.93 544.8 1107.03 549C1110.2 555.342 1117.39 559.587 1121.84 565C1126.56 570.748 1125.42 585.655 1137.91 580.142C1143.46 577.689 1144.54 569.62 1140.57 565.279C1137.12 561.517 1133.08 563.474 1129 561.803C1123.43 559.522 1115.78 551.035 1112.6 546C1110.1 542.037 1111 536.48 1111 532C1111 521.099 1108.47 506.62 1111.32 496.104C1112.63 491.272 1117.89 489.709 1117.89 484C1117.89 477.209 1111.27 473.217 1105.04 475.742z"/>
<path style="fill:#010101; stroke:none;" d="M1521 476L1522 477L1521 476M1219 477L1220 478L1219 477z"/>
<path style="fill:#013585; stroke:none;" d="M156 649L111 651C111 712.708 172.635 739.706 227 732.13C257.759 727.844 289.65 710.364 297.346 678C299.575 668.623 300.84 658.604 299.576 649C298.331 639.548 297.102 630.801 293.135 622C276.347 584.756 233.576 584.905 199 580.714C179.769 578.384 152.062 564.827 165.185 541C177.188 519.208 216.273 515.103 234.961 529.9C239.006 533.103 242.285 537.345 244.506 542C245.829 544.773 246.435 549.904 249.43 551.397C253.24 553.295 259.016 551.549 263 551.17C272.445 550.271 282.514 550.001 292 550C292 461.791 143.504 452.303 117.356 530C108.157 557.332 115.218 591.835 139 609.243C153.461 619.828 170.6 623.577 188 625.715C209.036 628.3 245.324 625.393 250.532 653C254.167 672.265 238.604 685.337 221 687.869C194.559 691.672 156.673 681.414 156 649z"/>
<path style="fill:#010101; stroke:none;" d="M1116 478L1117 479L1116 478M1218 478L1219 479L1218 478z"/>
<path style="fill:#013585; stroke:none;" d="M1610 649L1565 651C1565 714.222 1630.91 741.711 1686 731.389C1713.66 726.207 1740.52 710.98 1750 683C1758.41 658.168 1755.16 624.338 1735.91 605.09C1723.51 592.695 1705.07 586.464 1688 584.286C1666.72 581.57 1626.54 585.419 1617.76 560C1611.77 542.666 1627.35 528.07 1643 523.885C1667.87 517.235 1695.6 524.364 1702 552L1747 550C1743.2 461.607 1596.48 451.609 1571.03 532C1562.57 558.709 1569.98 592.09 1593 609.076C1607.42 619.713 1624.57 623.623 1642 625.714C1662.69 628.197 1698.78 625.3 1704.48 652C1709.19 674.042 1691.13 685.68 1672 688.421C1645.31 692.244 1612.38 678.903 1610 649z"/>
<path style="fill:#010101; stroke:none;" d="M184 479L185 480L184 479M225 479L226 480L225 479M1100 479L1101 480L1100 479M1208 479L1209 480L1208 479M1404 479L1405 480L1404 479M1679 479L1680 480L1679 479z"/>
<path style="fill:#013585; stroke:none;" d="M338 480L338 649C338 671.429 335.438 701.433 355.039 717.32C370.86 730.143 393.63 731 413 731L504 731L504 687L425 687C414.556 687 400.127 687.841 392.789 678.815C383.099 666.895 388 641.47 388 627L445 627L464.821 625.397L466.424 614L469 582L388 582L388 525L504 525L504 480L338 480M547 480L547 731L597 731L597 585L598 585C600.818 594.782 606.88 603.813 611.219 613C620.702 633.076 630.311 653.142 640.247 673C645.51 683.52 652.711 695.641 666 695.945C678.913 696.241 687.495 685.513 692.752 675C700.984 658.537 708.242 641.569 716.258 625C722.635 611.823 731.132 598.143 735 584L736 584L736 731L786 731L786 480L751 480L736.637 481.028L729.861 493L717.753 518L686.753 582L667 624L617.309 523L602.753 493L595.61 481.028L581 480L547 480z"/>
<path style="fill:#010101; stroke:none;" d="M596 480L597 481L596 480z"/>
<path style="fill:#013585; stroke:none;" d="M832 480L832 731L882 731L882 573L883 573C893.445 595.346 909.966 616.246 923.308 637C940.067 663.069 955.192 691.303 973.9 716C984.413 729.879 1007.64 742.527 1022.96 727.895C1038.43 713.116 1032 680.422 1032 661L1032 480L982 480L982 642L908.681 525L889.192 494L879.815 481.028L865 480L832 480z"/>
<path style="fill:#010101; stroke:none;" d="M880 480L881 481L880 480z"/>
<path style="fill:#013585; stroke:none;" d="M1794 480L1794 731L1844 731L1844 480L1794 480z"/>
<path style="fill:#010101; stroke:none;" d="M1944 480L1945 481L1944 480z"/>
<path style="fill:#013585; stroke:none;" d="M1901 731L1951 731L1951 630L2039 630L2042 585L1951 585C1951 570.634 1946.11 545.017 1955.42 533.015C1962.93 523.327 1976.14 525 1987 525L2067 525L2067 480L1965 480C1948.32 480 1927.78 479.146 1914.09 490.529C1896.21 505.402 1901 536.535 1901 557L1901 731z"/>
<path style="fill:#ffffff; stroke:none;" d="M1106.76 482.082C1103.86 484.14 1107.64 488.151 1110.2 485.958C1112.58 483.924 1109.12 480.402 1106.76 482.082z"/>
<path style="fill:#010101; stroke:none;" d="M1110 481L1111 482L1110 481M1689 481L1690 482L1689 481M1936 481L1937 482L1936 481M597 482L598 483L597 482M1105 482L1106 483L1105 482M1625 482L1626 483L1625 482M1931 482L1932 483L1931 482M1099 484L1100 485L1099 484M247 485L248 486L247 485M1922 485L1923 486L1922 485M1076 486L1077 487L1076 486M1614 486L1615 487L1614 486M1920 486L1921 487L1920 486M1432 487L1433 488L1432 487M885 488L886 489L885 488M1100 488L1101 489L1100 488M1419 488L1420 489L1419 488M1525 488L1526 489L1525 488M1116 489L1117 490L1116 489M1132 489L1133 490L1132 489M1537 489L1538 490L1537 489M1606 490L1607 491L1606 490M150 491L151 492L150 491M1713 491L1714 492L1713 491M1104 492L1105 493L1104 492M262 493L263 494L262 493M1601 493L1602 494L1601 493M1910 494L1911 495L1910 494M1719 495L1720 496L1719 495M266 496L267 497L266 496M728 496L729 497L728 496M890 496L891 497L890 496M1169 496L1170 497L1169 496M1269 497L1270 498L1269 497M727 498L728 499L727 498M1073 499L1074 500L1073 499M726 500L727 501L726 500M1725 500L1726 501L1725 500M1457 501L1458 502L1457 501M1726 501L1727 502L1726 501M725 502L726 503L725 502M1084 503L1085 504L1084 503M1495 503L1496 504L1495 503M895 504L896 505L895 504M1729 504L1730 505L1729 504M1730 505L1731 506L1730 505M1395 507L1396 508L1395 507M1462 507L1463 508L1462 507M1499 507L1500 508L1499 507M1137 510L1138 511L1137 510M1487 510L1488 511L1487 510M1582 510L1583 511L1582 510M1734 510L1735 511L1734 510M127 511L128 512L127 511M1221 511L1221 512L1229 512L1221 511M1384 511L1384 512L1392 512L1384 511M900 512L901 513L900 512M1204 512L1205 513L1204 512M1254 513L1255 514L1254 513M1467 513L1468 514L1467 513z"/>
<path style="fill:#013585; stroke:none;" d="M1498 568L1504 568C1503.8 558.12 1499.44 542.175 1504.03 533C1507.26 526.527 1514.87 521.907 1520 517C1514.45 510.597 1507.46 519.7 1503 524.039C1493.39 533.405 1498 555.077 1498 568z"/>
<path style="fill:#010101; stroke:none;" d="M1517 513L1518 514L1517 513z"/>
<path style="fill:#ffffff; stroke:none;" d="M1211 515L1211 516L1214 517L1214 514L1211 515M1399 514L1399 517L1401 517L1401 514L1399 514z"/>
<path style="fill:#010101; stroke:none;" d="M1491 514L1492 515L1491 514M1518 514L1519 515L1518 514M1579 514L1580 515L1579 514M1398 515L1399 516L1398 515M1480 516L1481 517L1480 516M1377 517L1378 518L1377 517M1509 518L1510 519L1509 518M1739 518L1740 519L1739 518M1220 519L1221 520L1220 519M1508 519L1509 520L1508 519M1071 520L1072 521L1071 520M1484 520L1485 521L1484 520M207 521L208 522L207 521M616 521L617 522L616 521M1406 521L1407 522L1406 521M1661 521L1662 522L1661 521M194 522L195 523L194 522M1513 522L1514 523L1513 522M1648 522L1649 523L1648 522M189 523L190 524L189 523M617 523L618 524L617 523M1209 523L1210 524L1209 523M1403 523L1404 524L1403 523M1071 524L1072 525L1071 524M228 525L229 526L228 525M618 525L619 526L618 525M1573 525L1574 526L1573 525M230 526L231 527L230 526M619 527L620 528L619 527M1686 527L1687 528L1686 527M1961 527L1962 528L1961 527M1530 528L1531 529L1530 528M1959 528L1960 529L1959 528M175 529L176 530L175 529M237 531L238 532L237 531M912 531L913 532L912 531M1428.33 531.667L1428.67 532.333L1428.33 531.667M1744 531L1745 532L1744 531M238 532L239 533L238 532M290 532L291 533L290 532M170 533L171 534L170 533M710 533L711 534L710 533M1249 533L1250 534L1249 533M1363 533L1364 534L1363 533M1954 533L1955 534L1954 533M169 534L170 535L169 534M1497 534L1498 535L1497 534M1694 534L1695 535L1694 534M168 535L169 536L168 535M709 535L710 536L709 535M1140 535L1141 536L1140 535M1141 536L1142 537L1141 536M708 537L709 538L708 537M1394 537L1395 538L1394 537M1397 537L1398 538L1397 537M1540 537L1541 538L1540 537M1135 538L1136 539L1135 538M1335 538L1336 539L1335 538M707 539L708 540L707 539M917 539L918 540L917 539M1136 539L1137 540L1136 539M164 541L165 542L164 541z"/>
<path style="fill:#013585; stroke:none;" d="M1375 543C1375 558.015 1371.67 577.458 1375.32 592C1376.93 598.425 1384.33 601.014 1384.94 608C1385.27 611.734 1385.79 617.296 1384.4 620.83C1382.63 625.338 1378.41 627.479 1379.24 632.999C1380.46 641.033 1391.33 643.632 1395.91 636.786C1401.72 628.104 1390.36 623.834 1390.02 615.999C1389.8 611.063 1391.25 604.553 1388.97 600C1386.73 595.521 1381.58 593.049 1380.32 588C1376.96 574.624 1380 556.808 1380 543L1375 543z"/>
<path style="fill:#010101; stroke:none;" d="M1746 544L1747 545L1746 544M1073 545L1074 546L1073 545M246 546L247 547L246 546M1292 546L1293 547L1292 546M1405 546L1406 547L1405 546M922 547L923 548L922 547M1528 547L1529 548L1528 547M1246 548L1247 549L1246 548M281 550L282 551L281 550M1074 550L1075 551L1074 550M1156 550L1157 551L1156 550z"/>
<path style="fill:#013585; stroke:none;" d="M1216 693L1221 693L1221 584C1221 579.942 1220.26 575.035 1221.32 571.089C1222.92 565.098 1234.75 550.932 1219 550.153C1201.58 549.291 1214.09 565.315 1215.68 571.104C1216.76 575.023 1216 579.963 1216 584L1216 693z"/>
<path style="fill:#010101; stroke:none;" d="M1288 550L1289 551L1288 550M1735 550L1736 551L1735 550M260 551L261 552L260 551M1157 551L1158 552L1157 551M1244 551L1245 552L1244 551M1151 553L1152 554L1151 553M1252 553L1253 554L1252 553M1296 553L1297 554L1296 553z"/>
<path style="fill:#ffffff; stroke:none;" d="M1316 553L1318 556L1316 553z"/>
<path style="fill:#010101; stroke:none;" d="M1360 553L1361 554L1360 553M1152 554L1153 555L1152 554M1226 554L1227 555L1226 554z"/>
<path style="fill:#ffffff; stroke:none;" d="M1251 554L1251 556L1254 556L1254 554L1251 554z"/>
<path style="fill:#010101; stroke:none;" d="M1287 554L1288 555L1287 554z"/>
<path style="fill:#ffffff; stroke:none;" d="M1295 554L1295 556L1297 556L1297 554L1295 554z"/>
<path style="fill:#010101; stroke:none;" d="M1315.33 554.667L1315.67 555.333L1315.33 554.667z"/>
<path style="fill:#ffffff; stroke:none;" d="M1359 556L1362 554L1359 556z"/>
<path style="fill:#010101; stroke:none;" d="M927 555L928 556L927 555M1361 555L1362 556L1361 555M1537 555L1538 556L1537 555z"/>
<path style="fill:#ffffff; stroke:none;" d="M1216.6 557.086C1214.18 558.891 1216.88 563.364 1219.4 561.253C1221.72 559.3 1219.23 555.127 1216.6 557.086z"/>
<path style="fill:#010101; stroke:none;" d="M1414 557L1415 558L1414 557M1076 558L1077 559L1076 558M1308 558L1309 559L1308 558M1368 558L1369 559L1368 558M1413 558L1414 559L1413 558M1288 559L1289 560L1288 559M1536 559L1537 560L1536 559M1353 560L1354 561L1353 560M1215 561L1216 562L1215 561M1220 561L1221 562L1220 561M1354 561L1355 562L1354 561M1366 561L1367 562L1366 561M1503 561L1504 562L1503 561M1209 562L1210 563L1209 562M1247 562L1248 563L1247 562M1417 562L1418 563L1417 562M1568 562L1569 563L1568 562M932 563L933 564L932 563M1297 563L1298 564L1297 563M1359 563L1360 564L1359 563M1416 563L1417 564L1416 563M114 564L115 565L114 564M1484 564L1485 565L1484 564M1172 565L1173 566L1172 565M1225 565L1226 566L1225 565M1485 565L1486 566L1485 565M1173 566L1174 567L1173 566M1224 566L1225 567L1224 566M1079 567L1080 568L1079 567M1213 567L1214 568L1213 567M639 568L640 569L639 568M1167 568L1168 569L1167 568M1498.67 568.333L1499.33 568.667L1498.67 568.333M1520 568L1521 569L1520 568M1093 569L1094 570L1093 569M1168 569L1169 570L1168 569M1487 569L1488 570L1487 569M640 570L641 571L640 570M1124 570L1125 571L1124 570M937 571L938 572L937 571M1400 571L1401 572L1400 571M172 572L173 573L172 572M641 572L642 573L641 572M691 572L692 573L691 572M642 574L643 575L642 574M690 574L691 575L690 574z"/>
<path style="fill:#013585; stroke:none;" d="M1317 692L1323 692C1323 680.093 1317.1 657.893 1323.03 647.17C1331.14 632.494 1355.35 625.633 1361.4 609.961C1362.97 605.888 1361.25 601.209 1362.32 597.039C1363.71 591.626 1368.86 589.409 1367.77 583.004C1366.6 576.136 1357.35 573.652 1352.42 578.434C1344.28 586.326 1355.81 592.518 1356.81 600.004C1357.89 608.11 1351.19 611.989 1346 616.989C1337.51 625.167 1326.81 632.339 1320 642C1314.86 637.085 1306.3 632.367 1303.03 625.985C1300 620.084 1302 609.512 1302 603C1302 594.635 1313.7 583.57 1306.57 576.434C1299.83 569.693 1288.49 577.131 1291.12 585.996C1292.27 589.878 1296.19 591.95 1296.85 596.039C1298.51 606.274 1293.92 619.236 1297.6 628.985C1300.56 636.81 1311.22 639.536 1314.97 647.001C1320.7 658.409 1317 679.461 1317 692M1319 622C1323.22 626.878 1327.29 623.487 1330.68 618.999C1336.07 611.858 1330.57 601.953 1333.6 594.17C1335.45 589.41 1340.06 586.856 1338.33 581.015C1335.46 571.307 1321.02 572.916 1320.31 583.001C1319.87 589.161 1325.37 590.46 1327.4 595.209C1331.78 605.499 1325.84 615.154 1319 622z"/>
<path style="fill:#010101; stroke:none;" d="M1440 574L1441 575L1440 574M177 575L178 576L177 575M1439 575L1440 576L1439 575M1469 575L1470 576L1469 575M689 576L690 577L689 576z"/>
<path style="fill:#013585; stroke:none;" d="M1276 693L1282 693C1282 672.872 1288.85 645.461 1269 634L1269 633C1283.1 623.042 1274.62 610.944 1278.32 597.089C1279.55 592.468 1284.62 590.264 1284.62 585C1284.62 577.189 1274.89 573.402 1269.23 578.434C1260.9 585.829 1271.42 590.516 1272.51 597.104C1274.5 609.083 1271.61 620.565 1265 630C1259.49 624.729 1246.43 617.871 1245.15 609.961C1244.58 606.439 1243.75 599.599 1244.77 596.209C1246.59 590.155 1255.06 585.488 1247.58 578.653C1241.83 573.396 1232.53 577.291 1232.15 585C1231.88 590.595 1236.61 592.496 1238.4 597.089C1240.49 602.446 1238.59 609.204 1240.3 614.83C1244.57 628.841 1267.78 634.61 1274.97 647.286C1277.06 650.973 1276 656.908 1276 661L1276 693z"/>
<path style="fill:#010101; stroke:none;" d="M1271 576L1272 577L1271 576M1397 576L1398 577L1397 576M1438 576L1439 577L1438 576M885 577L886 578L885 577M1141 577L1142 578L1141 577M1528 577L1529 578L1528 577z"/>
<path style="fill:#013585; stroke:none;" d="M1155 597C1150.37 616.442 1170.81 620.768 1174.69 637C1177.24 647.696 1167.15 652.072 1168.27 660.999C1169.56 671.283 1185.44 671.283 1186.73 660.999C1187.54 654.551 1181.05 652.501 1180.15 646.957C1178.09 634.312 1180 619.821 1180 607L1175 607L1175 626C1170.43 619.938 1161.27 612.763 1160.15 605C1158.9 596.359 1172.97 588.657 1163.72 580.653C1153.06 571.43 1141.87 589.815 1155 597z"/>
<path style="fill:#010101; stroke:none;" d="M1291 578L1292 579L1291 578M1471 578L1472 579L1471 578M1571 578L1572 579L1571 578M1639 578L1640 579L1639 578M942 579L943 580L942 579M1100 579L1101 580L1100 579M1139 579L1140 580L1139 579M1162 579L1163 580L1162 579M1443 579L1444 580L1443 579M197 580L198 581L197 580M1086 580L1087 581L1086 580z"/>
<path style="fill:#ffffff; stroke:none;" d="M1328.26 581.345C1325.45 582.411 1326.66 587.261 1329.74 586.248C1332.64 585.292 1331.17 580.245 1328.26 581.345z"/>
<path style="fill:#010101; stroke:none;" d="M1350 580L1351 581L1350 580M1442 580L1443 581L1442 580M1232 581L1233 582L1232 581z"/>
<path style="fill:#018181; stroke:none;" d="M1331 581L1332 582L1331 581z"/>
<path style="fill:#010101; stroke:none;" d="M1441 581L1442 582L1441 581M216 582L217 583L216 582z"/>
<path style="fill:#ffffff; stroke:none;" d="M1273.6 583.082C1271.13 584.872 1273.92 588.713 1276.4 586.918C1278.87 585.128 1276.08 581.287 1273.6 583.082z"/>
<path style="fill:#010101; stroke:none;" d="M1290 582L1291 583L1290 582M1410 582L1411 583L1410 582M1183 583L1184 584L1183 583z"/>
<path style="fill:#018181; stroke:none;" d="M1332 583L1333 584L1332 583z"/>
<path style="fill:#010101; stroke:none;" d="M234 584L235 585L234 584M1089 584L1090 585L1089 584z"/>
<path style="fill:#ffffff; stroke:none;" d="M1156.29 585.255C1153.36 586.684 1155.67 591.363 1158.54 589.828C1161.3 588.353 1159.16 583.859 1156.29 585.255z"/>
<path style="fill:#010101; stroke:none;" d="M1166 584L1167 585L1166 584M1184 584L1185 585L1184 584M1508 584L1509 585L1508 584M240 585L241 586L240 585M1148 585L1149 586L1148 585M2042.33 585.667L2042.67 586.333L2042.33 585.667M1349 586L1350 587L1349 586M1406 586L1407 587L1406 586M1574 586L1575 587L1574 586M947 587L948 588L947 587M1407 587L1408 588L1407 587M733 588L734 589L733 588M892 588L893 589L892 588M1160 588L1161 589L1160 588M1274.67 588.333L1275.33 588.667L1274.67 588.333M1706 588L1707 589L1706 588M1110 589L1111 590L1110 589M1154 589L1155 590L1154 589M1232 589L1233 590L1232 589M1709 589L1710 590L1709 589M1416 590L1417 591L1416 590M1576 590L1577 591L1576 590M260 591L261 592L260 591M894 591L895 592L894 591M1304 591L1305 592L1304 591M1500 591L1501 592L1500 591M1114 592L1115 593L1114 592M1149 592L1150 593L1149 592M1363 593L1364 594L1363 593M268 595L269 596L268 595M1420 595L1421 596L1420 595M1419 596L1420 597L1419 596M1102 597L1103 598L1102 597M1122 597L1123 598L1122 597M1356 597L1357 598L1356 597M1154 598L1155 599L1154 598M1727 598L1728 599L1727 598M1272 599L1273 600L1272 599M1439 599L1440 600L1439 599M1487 599L1488 600L1487 599M467 600L468 601L467 600M1106 600L1107 601L1106 600M1423 600L1424 601L1423 600z"/>
<path style="fill:#013585; stroke:none;" d="M1428 688L1433 688C1433 680.889 1431.13 670.707 1433.6 664C1435.32 659.343 1440.45 656.928 1441.68 652C1443.81 643.505 1441.18 633.7 1442.17 625C1443.04 617.436 1452.64 610.989 1446.99 603.228C1442.6 597.188 1432.16 599.96 1430.66 607.001C1429.32 613.31 1435.31 615.759 1436.68 621.039C1438.5 628.022 1437.29 637.8 1436.98 645C1436.66 652.37 1429.93 654.688 1427.6 661C1424.83 668.514 1427.02 680.245 1428 688z"/>
<path style="fill:#010101; stroke:none;" d="M1129 601L1130 602L1129 601M1422 601L1423 602L1422 601M901 602L902 603L901 602M1411 602L1412 603L1411 602M1482 602L1483 603L1482 602M279 603L280 604L279 603M1132 603L1133 604L1132 603M1447 603L1448 604L1447 603M133 604L134 605L133 604M1112 604L1113 605L1112 604M1135 605L1136 606L1135 605M1448 605L1449 606L1448 605z"/>
<path style="fill:#ffffff; stroke:none;" d="M1437.62 607.082C1434.95 608.934 1438.03 612.58 1440.64 610.918C1443.56 609.062 1440.15 605.322 1437.62 607.082z"/>
<path style="fill:#010101; stroke:none;" d="M1441 606L1442 607L1441 606M283 607L284 608L283 607M724 607L725 608L724 607M1493 608L1494 609L1493 608M1592 608L1593 609L1592 608M673 609L674 610L673 609M723 609L724 610L723 609M1739 609L1740 610L1739 609M1353 610L1354 611L1353 610M1430 610L1431 611L1430 610M610 611L611 612L610 611M672 611L673 612L672 611M1470 611L1471 612L1470 611M2040 611L2041 612L2040 611M287 612L288 613L287 612M1486 612L1487 613L1486 612M1598 612L1599 613L1598 612M611 613L612 614L611 613M661 613L662 614L661 613M671 613L672 614L671 613M908 613L909 614L908 613M1164 613L1165 614L1164 613M964 614L965 615L964 614M1357 614L1358 615L1357 614M289 615L290 616L289 615M612 615L613 616L612 615M662 615L663 616L662 615M1446 615L1447 616L1446 615M1445 616L1446 617L1445 616M663 617L664 618L663 617M1160 617L1161 618L1160 617M1241 617L1242 618L1241 617M1435 617L1436 618L1435 617M1610 618L1611 619L1610 618M1745 618L1746 619L1745 618M664 619L665 620L664 619M1169 619L1170 620L1169 619M1252 619L1253 620L1252 619M1746 620L1747 621L1746 620M1341 621L1342 622L1341 621M969 622L970 623L969 622M1442 622L1443 623L1442 622M1747 622L1748 623L1747 622M1153 623L1154 624L1153 623M1165 623L1166 624L1165 623M1393 623L1394 624L1393 623M915 624L916 625L915 624M1258 624L1259 625L1258 624M1277 624L1278 625L1277 624M1346 624L1347 625L1346 624M1632 624L1633 625L1632 624M186 625L187 626L186 625M294 625L295 626L294 625M1141 625L1142 626L1141 625M1174 625L1175 626L1174 625M1345 625L1346 626L1345 625M1458 625L1459 626L1458 625M715 626L716 627L715 626M1650 626L1651 627L1650 626M917 627L918 628L917 627M1749 627L1750 628L1749 627M215 628L216 629L215 628M714 628L715 629L714 628M1143 628L1144 629L1143 628M1254 628L1255 629L1254 628M1386 628L1387 629L1386 628z"/>
<path style="fill:#ffffff; stroke:none;" d="M1387.26 629.059C1384.49 629.6 1385.1 634.373 1388 633.963C1391.17 633.513 1390.41 628.444 1387.26 629.059z"/>
<path style="fill:#010101; stroke:none;" d="M223 629L224 630L223 629M1170 629L1171 630L1170 629M1390 629L1391 630L1390 629M1397 629L1398 630L1397 629M974 630L975 631L974 630M1306 630L1307 631L1306 630M1468 630L1469 631L1468 630M1330 631L1331 632L1330 631M1685 631L1686 632L1685 631z"/>
<path style="fill:#013585; stroke:none;" d="M1251 691L1256 691C1256 672.291 1256.98 655.293 1250.25 638.015C1246.93 629.471 1233.44 630.671 1232.27 640.001C1230.66 652.904 1245.91 647.356 1249.97 655.023C1254.47 663.52 1251 681.445 1251 691z"/>
<path style="fill:#010101; stroke:none;" d="M1329 632L1330 633L1329 632M1260 633L1261 634L1260 633z"/>
<path style="fill:#013585; stroke:none;" d="M1288.38 634.256C1284.28 636.223 1295.35 646.745 1295.85 650C1296.75 655.801 1297.17 665.225 1295.68 670.911C1294.49 675.457 1290.01 677.784 1290.28 682.999C1290.6 689.213 1297.19 693.383 1302.96 690.987C1306.5 689.514 1308.91 685.871 1308.68 682C1308.35 676.371 1302.62 674.812 1301.32 669.946C1299.13 661.762 1303.35 652.004 1300.4 644C1299.22 640.804 1292.55 632.253 1288.38 634.256z"/>
<path style="fill:#010101; stroke:none;" d="M1290 633L1291 634L1290 633M1390 633L1391 634L1390 633M1397 633L1398 634L1397 633M1302 634L1303 635L1302 634M1386 634L1387 635L1386 634M1412 634L1413 635L1412 634M1466 634L1467 635L1466 634M239 635L240 636L239 635M1271 635L1272 636L1271 635M1334 635L1335 636L1334 635M1313 636L1314 637L1313 636M1453 636L1454 637L1453 636M1286 637L1287 638L1286 637M1359 637L1360 638L1359 637z"/>
<path style="fill:#013585; stroke:none;" d="M1376 689L1381 689C1381 681.229 1382.57 671.544 1380.68 664C1379.4 658.902 1374.28 656.241 1371.6 652C1369.66 648.922 1370.56 645.204 1368.82 642.108C1364.27 633.98 1351.38 637.973 1351.38 647C1351.38 656.885 1367.2 656.287 1372.85 663C1378.29 669.452 1376 681.031 1376 689z"/>
<path style="fill:#010101; stroke:none;" d="M924 638L925 639L924 638M979 638L980 639L979 638M1697 638L1698 639L1697 638M1267 639L1268 640L1267 639M1698 639L1699 640L1698 639M1277 640L1278 641L1277 640M1309 640L1310 641L1309 640M1279 642L1280 643L1279 642M1701 643L1702 644L1701 643M1250 644L1251 645L1250 644M706 645L707 646L706 645M1323 645L1324 646L1323 645M1341 645L1342 646L1341 645M1702 645L1703 646L1702 645M1233 646L1234 647L1233 646M1275 646L1276 647L1275 646M1322 646L1323 647L1322 646z"/>
<path style="fill:#013585; stroke:none;" d="M1337 646L1338.03 665.911L1349.4 677.089L1351 690L1356 690L1355.4 675.039L1343.74 662.911L1342 646L1337 646z"/>
<path style="fill:#010101; stroke:none;" d="M705 647L706 648L705 647M249 648L250 649L249 648M299 648L300 649L299 648M628 648L629 649L628 648M931 649L932 650L931 649M1162 649L1163 650L1162 649M1596 649L1597 650L1596 649M629 650L630 651L629 650M1239 650L1240 651L1239 650M1575 650L1576 651L1575 650M250 652L251 653L250 652M630 652L631 653L630 652M631 654L632 655L631 654M1169 654L1170 655L1169 654M1185 654L1186 655L1185 654M156 655L157 656L156 655M1168 656L1169 657L1168 656M1316 658L1317 659L1316 658M938 660L939 661L938 660M1342 661L1343 662L1342 661M158 662L159 663L158 662M111 663L112 664L111 663M940 663L941 664L940 663M250 664L251 665L250 664M697 664L698 665L697 664M696 666L697 667L696 666M112 669L113 670L112 669M1341 669L1342 670L1341 669M298 672L299 673L298 672M113 673L114 674L113 673M1163 673L1164 674L1163 673M1302 673L1303 674L1302 673M1701 673L1702 674L1701 673M947 674L948 675L947 674M1347 674L1348 675L1347 674M1307 677L1308 678L1307 677M1164 679L1165 680L1164 679M1290 679L1291 680L1290 679M1297 679L1298 680L1297 679z"/>
<path style="fill:#ffffff; stroke:none;" d="M1298.26 679.97C1295.1 680.909 1296.51 685.991 1299.74 685.03C1302.9 684.091 1301.49 679.009 1298.26 679.97z"/>
<path style="fill:#010101; stroke:none;" d="M1300 679L1301 680L1300 679M1696 679L1697 680L1696 679M175 680L176 681L175 680M393 680L394 681L393 680M1322 681L1323 682L1322 681M1631 681L1632 682L1631 681M1750 681L1751 682L1750 681M116 682L117 683L116 682M1633 682L1634 683L1633 682M181 683L182 684L181 683M1165 683L1166 684L1165 683M1690 683L1691 684L1690 683M1427 684L1427 687L1428 687L1427 684M1688 684L1689 685L1688 684M186 685L187 686L186 685M954 685L955 686L954 685M228 686L229 687L228 686M410 686L411 687L410 686M648 686L649 687L648 686M1166 686L1167 687L1166 686M1572 686L1573 687L1572 686M1678 687L1679 688L1678 687M683 688L684 689L683 688M1573 688L1574 689L1573 688M1671 688L1672 689L1671 688M652 690L653 691L652 690M1294 690L1295 691L1294 690M1447 690L1448 691L1447 690M1296 691L1297 692L1296 691M678 692L679 693L678 692M1576 693L1577 694L1576 693M290 694L291 695L290 694M674 694L675 695L674 694M961 696L962 697L961 696M1578 696L1579 697L1578 696M1743 696L1744 697L1743 696M1152 697L1153 698L1152 697M126 699L127 700L126 699M963 699L964 700L963 699M1152 699L1153 700L1152 699M1430 699L1431 700L1430 699M1741 699L1742 700L1741 699M286 700L287 701L286 700M343 700L344 701L343 700M1581 700L1582 701L1581 700M1460 702L1461 703L1460 702M1737 704L1738 705L1737 704M968 707L969 708L968 707M1155 709L1156 710L1155 709M1732 709L1733 710L1732 709M1731 710L1732 711L1731 710M1592 711L1593 712L1592 711M350 712L351 713L350 712M1455 712L1456 713L1455 712M1454 713L1455 714L1454 713M1726 714L1727 715L1726 714M1030 715L1031 716L1030 715M269 716L270 717L269 716M974 716L975 717L974 716M355 717L356 718L355 717M1447 717L1448 718L1447 717M1601 717L1602 718L1601 717M266 718L267 719L266 718M1182 719L1183 720L1182 719M1028 720L1029 721L1028 720M361 721L362 722L361 721M1713 722L1714 723L1713 722M365 723L366 724L365 723M1613 723L1614 724L1613 723M370 725L371 726L370 725M1618 725L1619 726L1618 725M373 726L374 727L373 726M984 726L985 727L984 726M1411 726L1412 727L1411 726M1023 727L1024 728L1023 727M381 728L382 729L381 728M176 729L177 730L176 729M240 729L241 730L240 729M180 730L181 731L180 730M1409 730L1410 731L1409 730M1690 730L1691 731L1690 730M231 731L232 732L231 731M1639 731L1640 732L1639 731M1685 731L1686 732L1685 731M191 732L192 733L191 732M224 732L225 733L224 732M1016 732L1017 733L1016 732M1645 732L1646 733L1645 732M204 733L205 734L204 733M209 733L210 734L209 733M1013 733L1014 734L1013 733M1659 733L1660 734L1659 733M1663 733L1664 734L1663 733M1209 735L1210 736L1209 735M1320 737L1321 738L1320 737M1319 738L1320 739L1319 738M1295 751L1296 752L1295 751M1319 751L1320 752L1319 751z"/>
</svg>
